<svg width="109" height="44" viewBox="0 0 109 44" fill="none" xmlns="http://www.w3.org/2000/svg">
<path d="M64.9315 11.9284C62.1883 9.18519 58.9316 7.00909 55.3475 5.52449C51.7633 4.03989 47.9219 3.27579 44.0424 3.27579C40.1629 3.27579 36.3215 4.03989 32.7373 5.52449C29.1532 7.00909 25.8965 9.18519 23.1533 11.9284L44.0424 32.8174L64.9315 11.9284Z" fill="#FFD200"/>
<path d="M44.0686 32.8475C46.8118 35.5907 50.0684 37.7667 53.6526 39.2513C57.2367 40.7359 61.0782 41.5 64.9577 41.5C68.837 41.5 72.679 40.7359 76.263 39.2513C79.847 37.7667 83.104 35.5907 85.847 32.8475L64.9577 11.9584L44.0686 32.8475Z" fill="#06E07F"/>
<path d="M44.017 32.8429C41.2738 35.5861 38.0171 37.7621 34.433 39.2467C30.8488 40.7313 27.0074 41.4954 23.1279 41.4954C19.2484 41.4954 15.407 40.7313 11.8228 39.2467C8.2387 37.7621 4.982 35.5861 2.2388 32.8429L23.1279 11.9538L44.017 32.8429Z" fill="#E3073C"/>
<path d="M64.9831 11.933C67.726 9.18979 70.983 7.01379 74.567 5.52919C78.151 4.04459 81.993 3.28049 85.872 3.28049C89.752 3.28049 93.593 4.04459 97.177 5.52919C100.761 7.01379 104.018 9.18979 106.761 11.933L85.872 32.8221L64.9831 11.933Z" fill="#1F84EF"/>
</svg>
